<svg xmlns="http://www.w3.org/2000/svg" viewBox="0 0 366.64 165.83"><g id="Layer_2" data-name="Layer 2"><g id="Layer_1-2" data-name="Layer 1"><path d="M16,165.83c-.06-.14-.19-.15-.31-.2-1.11-.48-2.23-.94-3.33-1.44-2.21-1-4.36-2.1-6.48-3.27-1.8-1-3.6-2-5.4-3l-.34-.19a.25.25,0,0,1-.1-.27c0-.13,0-.25.07-.38q1.26-5.46,2.51-10.91T5.15,135l2.4-10.46L10,114.11q1.2-5.19,2.39-10.38l2.4-10.46q1.18-5.19,2.38-10.39t2.41-10.46l2.55-11.13q1.29-5.58,2.56-11.14c.38-1.66.77-3.31,1.14-5a21,21,0,0,0,.55-5.59A10.27,10.27,0,0,0,25.88,37a5.76,5.76,0,0,0-.62-1.33,4,4,0,0,0-2.82-1.84,11.21,11.21,0,0,0-1.15-.12,6.37,6.37,0,0,1-1.38-.19,3.84,3.84,0,0,1-1.07-.44,2.38,2.38,0,0,1-1.19-2,4.69,4.69,0,0,1,.48-2.39.29.29,0,0,1,.24-.17l.46,0,14.53.12,8.81.08,21.25.14a17.57,17.57,0,0,1,5.47.86,15.77,15.77,0,0,1,7,4.65,20.68,20.68,0,0,1,3.31,5.2A27.83,27.83,0,0,1,81,45.31a36,36,0,0,1,.74,9.37,40.78,40.78,0,0,1-3.37,14.59,32.35,32.35,0,0,1-4.94,8,24.82,24.82,0,0,1-7.24,5.93,22.44,22.44,0,0,1-5.71,2.12l-.45.1c-.36.09-.38.13-.25.47.62,1.69,1.25,3.37,1.89,5.06,2.39,6.39,4.79,12.77,7.28,19.13,1.29,3.3,2.6,6.61,4,9.87.38.87.78,1.73,1.18,2.6a10.7,10.7,0,0,0,1,1.73,5.4,5.4,0,0,0,1.43,1.39,7.72,7.72,0,0,0,2.24,1,14.11,14.11,0,0,0,2.34.5c.71.09,1.43.16,2.15.23a2.35,2.35,0,0,0,.53,0,39.61,39.61,0,0,0,6.23-1.09,1.67,1.67,0,0,1,.31,0,.13.13,0,0,1,.15.12l-.09.3c-.55,1.39-1.1,2.77-1.64,4.16a1.19,1.19,0,0,1-.54.63A31.39,31.39,0,0,1,80,134.92a34.26,34.26,0,0,1-5.33.88,15.67,15.67,0,0,1-2.47,0c-.87-.06-1.74-.18-2.6-.32a23,23,0,0,1-4.31-1.2,20.57,20.57,0,0,1-4.64-2.44,17,17,0,0,1-2.89-2.54A14.07,14.07,0,0,1,55,124.86q-5.65-14.7-11.34-29.39c-.91-2.35-1.84-4.7-2.77-7-.11-.28-.23-.57-.36-.85a5,5,0,0,0-.65-1,4.08,4.08,0,0,0-1.23-1,2.83,2.83,0,0,0-3.8,1A3.83,3.83,0,0,0,34.22,88c-.2,1.43-.53,2.83-.85,4.24-1.47,6.47-3,12.93-4.53,19.39q-2.61,11-5.18,22Q21.29,143.67,19,153.76c-.75,3.23-1.44,6.48-2.15,9.72-.12.55-.23,1.11-.33,1.67a1.31,1.31,0,0,0,0,.68ZM40.33,78.24c1.91-.08,3.8-.22,5.69-.48a15.82,15.82,0,0,0,6.2-2.25,20.32,20.32,0,0,0,6.24-6.11,25.11,25.11,0,0,0,3.72-9.34c.27-1.42.49-2.84.67-4.27A34.91,34.91,0,0,0,63.1,50a20.56,20.56,0,0,0-.54-3.82,18.4,18.4,0,0,0-2.69-5.95,8.44,8.44,0,0,0-1.66-1.82,10.3,10.3,0,0,0-2.52-1.48,15.39,15.39,0,0,0-5-1.06,20.72,20.72,0,0,0-4.09.15c-.6.08-.63.11-.73.7,0,.13-.07.25-.1.38q-1.35,6-2.69,12-1.59,7-3.17,14L37,76c-.15.65-.29,1.31-.43,2,0,.2,0,.28.24.29l.7,0Z"/><path d="M366.64,44.82a.52.52,0,0,0-.12.36,6.45,6.45,0,0,1-.74,2.65,11.34,11.34,0,0,1-2.32,3.26,15.57,15.57,0,0,1-5.77,3.63,15.33,15.33,0,0,1-5.45,1,6.69,6.69,0,0,1-3-.74,9.23,9.23,0,0,1-1.9-1.32,15.2,15.2,0,0,1-2.12-2.34c-.14-.19-.27-.38-.42-.55a2.38,2.38,0,0,0-.84-.67,1.15,1.15,0,0,0-1.36.2c-.28.26-.55.54-.81.82l-4.56,5c-.26.29-.5.59-.77.87a.52.52,0,0,0-.1.63c.06.14.11.29.17.43q5.07,13.15,10.15,26.3a35.08,35.08,0,0,0,2.35,4.86,14.46,14.46,0,0,0,1.08,1.6,9.19,9.19,0,0,0,1,1.09A5.09,5.09,0,0,0,353,93a9.38,9.38,0,0,0,2.57.46,16.76,16.76,0,0,0,3.54-.21,25.13,25.13,0,0,0,3.1-.66s.1,0,.14,0,.09.12.06.21,0,.09-.05.14-.07.19-.11.29L360.81,97c-.06.15-.11.29-.18.43a.74.74,0,0,1-.2.23l-.53.32a31.53,31.53,0,0,1-9.94,3.68,30.71,30.71,0,0,1-3.45.45,16.83,16.83,0,0,1-3,0c-.87-.09-1.74-.2-2.59-.37a14.63,14.63,0,0,1-6-2.64,12.82,12.82,0,0,1-3-3.22A19.08,19.08,0,0,1,330,92c-.53-1.37-1-2.75-1.57-4.11q-1.67-4.2-3.35-8.39c-.42-1.06-.83-2.11-1.18-3.19A2.12,2.12,0,0,0,322,74.81a2.65,2.65,0,0,0-1.78.36,3.62,3.62,0,0,0-1,.93,6.25,6.25,0,0,0-1,1.84,13.12,13.12,0,0,0-.4,1.49q-1.25,6-2.51,12-1,5-2.06,9.9c0,.2-.09.4-.14.6a.26.26,0,0,1-.28.21H295.49c-.25,0-.51,0-.76,0a.09.09,0,0,1-.09-.11c0-.15,0-.31.05-.45.32-1.36.63-2.71.95-4.07l2.85-12.25q1.35-5.79,2.69-11.58,1.29-5.49,2.56-11t2.56-11q1.26-5.46,2.54-10.91l2.73-11.73q1.33-5.79,2.69-11.58c.21-.9.41-1.81.53-2.73a18.34,18.34,0,0,0,.2-3.31,11,11,0,0,0-.41-2.74,5.59,5.59,0,0,0-.67-1.47,4,4,0,0,0-2.73-1.85A5.54,5.54,0,0,0,310,5.27a6.45,6.45,0,0,1-1.38-.18,4.08,4.08,0,0,1-1-.37,2.54,2.54,0,0,1-1.36-2.64,5.2,5.2,0,0,1,.35-1.5c.08-.19.14-.39.2-.58h29.06a1.57,1.57,0,0,1-.07.61q-1.15,5-2.3,9.93-1.51,6.51-3,13t-3.05,13.16q-1.43,6.1-2.83,12.19-1.37,5.91-2.74,11.81l-.48,2.18s0,.07,0,.07.1,0,.13,0c.2-.2.4-.41.58-.62l13.95-15.71q4.65-5.23,9.29-10.46a7.06,7.06,0,0,1,.82-.82,19.1,19.1,0,0,1,4.05-2.53,13.14,13.14,0,0,1,4.29-1.2,9.12,9.12,0,0,1,3.88.45,9.67,9.67,0,0,1,3.7,2.32,17.42,17.42,0,0,1,4,6.1,5.26,5.26,0,0,1,.43,1.87.68.68,0,0,0,.12.44Z"/><path d="M219.58,80.49a46.27,46.27,0,0,1,5.07-20.2,35.9,35.9,0,0,1,3.29-5.23,47.49,47.49,0,0,1,7.21-7.72,32.35,32.35,0,0,1,7-4.56,25,25,0,0,1,6.69-2.08,23.6,23.6,0,0,1,5.31-.26,28.51,28.51,0,0,1,14.69,5.35l.31.23a.42.42,0,0,0,.36.07l.67-.2L286,40.73c.77-.25.89-.28.94-.18l0,.06c-.07.28-.13.55-.2.83q-1.92,7.39-3.75,14.82-1.4,5.7-2.7,11.42c-.84,3.72-1.65,7.44-2.37,11.18q-.5,2.65-.91,5.33a29.66,29.66,0,0,0-.42,4,12.9,12.9,0,0,0,0,1.39,3.74,3.74,0,0,0,2,3,6.51,6.51,0,0,0,2.19.73,15.47,15.47,0,0,0,4.08.08,30.36,30.36,0,0,0,4.63-.83,1.59,1.59,0,0,1,.38-.06s.08.08.07.11a1,1,0,0,1-.07.3c-.54,1.39-1.1,2.78-1.63,4.17a1.22,1.22,0,0,1-.54.62A31.41,31.41,0,0,1,274.63,102a24.7,24.7,0,0,1-4.55,0,16.87,16.87,0,0,1-3.92-.81,13.07,13.07,0,0,1-7.65-6.58c-.13-.25-.27-.5-.41-.74,0,0-.09,0-.13,0a1,1,0,0,0-.26.16c-.41.31-.81.64-1.21,1a44,44,0,0,1-5.93,3.91,30.07,30.07,0,0,1-5.82,2.46,20.49,20.49,0,0,1-4.32.83,17.1,17.1,0,0,1-12.35-3.68,21.06,21.06,0,0,1-4.08-4.3,24.14,24.14,0,0,1-3.94-8.66,15.87,15.87,0,0,1-.42-3.06Zm20.66-3.4c0,.88.06,1.75.11,2.62a22.88,22.88,0,0,0,.67,4.11,14.56,14.56,0,0,0,1.45,3.65,9.43,9.43,0,0,0,1.65,2.13,5.86,5.86,0,0,0,1.36,1,9.92,9.92,0,0,0,6.28,1.06,8.31,8.31,0,0,0,2.89-1,17.62,17.62,0,0,0,2.48-1.83,3.69,3.69,0,0,0,1.19-1.94c.24-.95.51-1.89.75-2.83q1.57-6,3-12.07c1.21-5.13,2.38-10.27,3.44-15.44.16-.78.3-1.57.44-2.35a2.69,2.69,0,0,0,0-.85,3.38,3.38,0,0,0-.82-1.8,12.1,12.1,0,0,0-4.78-3.43,9,9,0,0,0-2.86-.62,8.27,8.27,0,0,0-3.33.54,10.84,10.84,0,0,0-3.11,1.83,17.48,17.48,0,0,0-2.36,2.43,26.6,26.6,0,0,0-2.57,3.85,47.37,47.37,0,0,0-2.81,6.1c-.55,1.47-1.11,2.93-1.54,4.44a39.24,39.24,0,0,0-1.28,6.51C240.35,74.47,240.26,75.78,240.24,77.09Z"/><path d="M84.75,79.82c0-1.18.14-2.34.26-3.49.15-1.44.37-2.86.66-4.27a44.19,44.19,0,0,1,5.21-13.81,42.72,42.72,0,0,1,3.87-5.39,45.58,45.58,0,0,1,6-6.07,31,31,0,0,1,6.9-4.36,23.69,23.69,0,0,1,5.43-1.73,22.09,22.09,0,0,1,6.39-.25,25.58,25.58,0,0,1,12.85,5.24c.62.47.49.5,1.31.23L150,40.58c.21-.07.44-.13.66-.18,0,0,.11.05.11.08a2.34,2.34,0,0,1-.07.45c-.29,1.17-.58,2.35-.86,3.52-1.11,4.63-2.23,9.26-3.32,13.9q-1.22,5.15-2.38,10.3-1.43,6.21-2.68,12.46c-.33,1.66-.63,3.34-.92,5-.13.76-.21,1.53-.31,2.29a6.12,6.12,0,0,0,0,.85,3.7,3.7,0,0,0,1.59,3.1,4.8,4.8,0,0,0,1.38.68,9,9,0,0,0,2.51.45,20,20,0,0,0,4.08-.23,33.63,33.63,0,0,0,3.32-.67l.38-.06s.09.07.09.1a1.11,1.11,0,0,1-.08.3c-.54,1.39-1.1,2.77-1.64,4.17a1.15,1.15,0,0,1-.53.62,32.18,32.18,0,0,1-4.65,2.26,31.41,31.41,0,0,1-6,1.66,26.75,26.75,0,0,1-6.92.35,16.47,16.47,0,0,1-5.16-1.26,12.87,12.87,0,0,1-6.35-5.85c-.19-.34-.36-.68-.55-1a.15.15,0,0,0-.2,0l-.19.13-.66.53A47.84,47.84,0,0,1,115,98.39a30.87,30.87,0,0,1-5.59,2.6,20.93,20.93,0,0,1-5.19,1.13A15.53,15.53,0,0,1,93,98.74a19.89,19.89,0,0,1-4.23-4.69A25,25,0,0,1,85.1,85a19,19,0,0,1-.35-3.76Zm35.83-32.37c-.18,0-.49,0-.79,0A9.21,9.21,0,0,0,116,48.82a13.64,13.64,0,0,0-2.25,1.76A20.46,20.46,0,0,0,111,54a35.47,35.47,0,0,0-2.87,5.28c-.69,1.53-1.28,3.09-1.87,4.66a37.11,37.11,0,0,0-1.46,5,31.42,31.42,0,0,0-.66,4.42,28.32,28.32,0,0,0,0,4.32,21.14,21.14,0,0,0,.66,4.19,14,14,0,0,0,1.68,4,9.4,9.4,0,0,0,1.9,2.22,6.54,6.54,0,0,0,1.41.94,10,10,0,0,0,5.85,1,8.18,8.18,0,0,0,2.57-.8,14.16,14.16,0,0,0,3.3-2.4,2.9,2.9,0,0,0,.76-1.24c.06-.17.11-.34.16-.52,1.09-4,2.09-8,3.06-12,1.12-4.65,2.19-9.32,3.17-14,.32-1.54.61-3.08.92-4.62a3.53,3.53,0,0,0-1-3,12.18,12.18,0,0,0-4.14-3A9.27,9.27,0,0,0,120.58,47.45Z"/><path d="M194.11,40.32h27.2c.28,0,.56,0,.84,0a.09.09,0,0,1,.09.11,5.66,5.66,0,0,1-.15.59,37.15,37.15,0,0,1-1.43,3.67,49.21,49.21,0,0,1-3.88,6.85,72.89,72.89,0,0,1-5.26,6.86c-2.28,2.67-4.69,5.21-7.16,7.69q-3.44,3.45-7,6.78a88.3,88.3,0,0,0-6.59,7c-2.14,2.51-4.2,5.08-6.12,7.76-.93,1.3-1.82,2.63-2.63,4a17.73,17.73,0,0,0-1.37,2.76c0,.14-.07.3-.11.45a.2.2,0,0,0,.13.16c.1,0,.2,0,.3,0,.26,0,.52,0,.78,0H215c.15,0,.22.11.2.26a2.84,2.84,0,0,1-.06.31l-1.35,5.95c0,.15-.08.29-.13.44a.27.27,0,0,1-.24.17h-54l-.93,0a.25.25,0,0,1-.19-.21c0-.13,0-.26,0-.38a19.15,19.15,0,0,1,.44-3.53,28.86,28.86,0,0,1,2.35-6.6A49.18,49.18,0,0,1,164.89,85a84.39,84.39,0,0,1,5.88-7.45c1.95-2.23,4-4.39,6-6.55,5.72-6.11,11.51-12.16,17.31-18.2l4.44-4.62c.17-.17.32-.34.48-.51a.21.21,0,0,0,0-.14s-.07-.1-.17-.11H164.33a.21.21,0,0,1-.16-.22,3.73,3.73,0,0,1,.09-.46c.49-1.94,1-3.89,1.5-5.83,0-.15.09-.29.13-.44a.22.22,0,0,1,.17-.14.85.85,0,0,1,.23,0h27.82Z"/></g></g></svg>